# xmcd CD database file
#
# Track frame offsets:
#	150
#	22148
#	40028
#	57908
#	78865
#	100370
#	118315
#	136943
#	157363
#	177960
#
# Disc length: 2648 seconds
#
# Revision: 0
# Processed by: cddbd v1.5PL3 Copyright (c) Steve Scherf et al.
# Submitted via: CDex 1.50Beta7
#
DISCID=880a560a
DTITLE=杉山清貴＆オメガトライブ - Single's History
DYEAR=1985
DGENRE=Pop
TTITLE0=君のハートはマリンブルー
TTITLE1=Rolling Memories
TTITLE2=ふたりの夏物語 〜Never Ending Summer〜
TTITLE3=Joanna
TTITLE4=サイレンスがいっぱい
TTITLE5=アスファルト・レディ
TTITLE6=愛を巻き戻して
TTITLE7=Summer Suspicion
TTITLE8=Farewell Call
TTITLE9=Riverside Hotel
EXTD=YEAR: 1985
EXTT0=
EXTT1=
EXTT2=
EXTT3=
EXTT4=
EXTT5=
EXTT6=
EXTT7=
EXTT8=
EXTT9=
PLAYORDER=
